<mxfile host="app.diagrams.net" agent="Mozilla/5.0 (Windows NT 10.0; Win64; x64) AppleWebKit/537.36 (KHTML, like Gecko) Chrome/133.0.0.0 Safari/537.36 Edg/133.0.0.0" version="24.8.6">
  <diagram name="Use Cases" id="sGpgU_qE8YFUGf5i315h">
    <mxGraphModel dx="1440" dy="1133" grid="1" gridSize="10" guides="1" tooltips="1" connect="1" arrows="1" fold="1" page="1" pageScale="1" pageWidth="827" pageHeight="1169" math="0" shadow="0">
      <root>
        <mxCell id="0" />
        <mxCell id="1" parent="0" />
        <mxCell id="yj0yQridHnJdFyQRnkWL-18" value="&lt;h1&gt;Platform API Use cases&lt;/h1&gt;" style="text;html=1;align=center;verticalAlign=middle;resizable=0;points=[];autosize=1;strokeColor=none;fillColor=none;" parent="1" vertex="1">
          <mxGeometry x="240" y="60" width="290" height="70" as="geometry" />
        </mxCell>
        <mxCell id="nJFfnlvHNIENDozwDLaP-1" value="Customer" style="sketch=0;outlineConnect=0;fontColor=#232F3E;gradientColor=none;fillColor=#232F3D;strokeColor=none;dashed=0;verticalLabelPosition=bottom;verticalAlign=top;align=center;html=1;fontSize=12;fontStyle=0;aspect=fixed;pointerEvents=1;shape=mxgraph.aws4.user;" vertex="1" parent="1">
          <mxGeometry x="120" y="162" width="78" height="78" as="geometry" />
        </mxCell>
        <mxCell id="nJFfnlvHNIENDozwDLaP-2" value="Shop Owner" style="sketch=0;outlineConnect=0;fontColor=#232F3E;gradientColor=none;fillColor=#232F3D;strokeColor=none;dashed=0;verticalLabelPosition=bottom;verticalAlign=top;align=center;html=1;fontSize=12;fontStyle=0;aspect=fixed;pointerEvents=1;shape=mxgraph.aws4.user;" vertex="1" parent="1">
          <mxGeometry x="120" y="380" width="78" height="78" as="geometry" />
        </mxCell>
        <mxCell id="nJFfnlvHNIENDozwDLaP-3" value="SaaS Platform&lt;div&gt;Administrator&lt;/div&gt;" style="sketch=0;outlineConnect=0;fontColor=#232F3E;gradientColor=none;fillColor=#232F3D;strokeColor=none;dashed=0;verticalLabelPosition=bottom;verticalAlign=top;align=center;html=1;fontSize=12;fontStyle=0;aspect=fixed;pointerEvents=1;shape=mxgraph.aws4.user;" vertex="1" parent="1">
          <mxGeometry x="120" y="761" width="78" height="78" as="geometry" />
        </mxCell>
        <mxCell id="nJFfnlvHNIENDozwDLaP-7" value="" style="group" vertex="1" connectable="0" parent="1">
          <mxGeometry x="440" y="161" width="200" height="80" as="geometry" />
        </mxCell>
        <mxCell id="nJFfnlvHNIENDozwDLaP-5" value="" style="fillColor=none;strokeColor=#5A6C86;dashed=1;verticalAlign=top;fontStyle=0;fontColor=#5A6C86;whiteSpace=wrap;html=1;" vertex="1" parent="nJFfnlvHNIENDozwDLaP-7">
          <mxGeometry width="200" height="80" as="geometry" />
        </mxCell>
        <mxCell id="nJFfnlvHNIENDozwDLaP-4" value="" style="sketch=0;outlineConnect=0;fontColor=#232F3E;gradientColor=none;fillColor=#E7157B;strokeColor=none;dashed=0;verticalLabelPosition=bottom;verticalAlign=top;align=center;html=1;fontSize=12;fontStyle=0;aspect=fixed;pointerEvents=1;shape=mxgraph.aws4.endpoint;" vertex="1" parent="nJFfnlvHNIENDozwDLaP-7">
          <mxGeometry x="12" y="20" width="38" height="38" as="geometry" />
        </mxCell>
        <mxCell id="nJFfnlvHNIENDozwDLaP-6" value="List Products" style="rounded=0;whiteSpace=wrap;html=1;fillColor=none;strokeColor=none;align=left;" vertex="1" parent="nJFfnlvHNIENDozwDLaP-7">
          <mxGeometry x="60" y="24" width="120" height="30" as="geometry" />
        </mxCell>
        <mxCell id="nJFfnlvHNIENDozwDLaP-8" value="" style="group" vertex="1" connectable="0" parent="1">
          <mxGeometry x="440" y="360" width="200" height="80" as="geometry" />
        </mxCell>
        <mxCell id="nJFfnlvHNIENDozwDLaP-9" value="" style="fillColor=none;strokeColor=#5A6C86;dashed=1;verticalAlign=top;fontStyle=0;fontColor=#5A6C86;whiteSpace=wrap;html=1;" vertex="1" parent="nJFfnlvHNIENDozwDLaP-8">
          <mxGeometry width="200" height="80" as="geometry" />
        </mxCell>
        <mxCell id="nJFfnlvHNIENDozwDLaP-10" value="" style="sketch=0;outlineConnect=0;fontColor=#232F3E;gradientColor=none;fillColor=#E7157B;strokeColor=none;dashed=0;verticalLabelPosition=bottom;verticalAlign=top;align=center;html=1;fontSize=12;fontStyle=0;aspect=fixed;pointerEvents=1;shape=mxgraph.aws4.endpoint;" vertex="1" parent="nJFfnlvHNIENDozwDLaP-8">
          <mxGeometry x="12" y="20" width="38" height="38" as="geometry" />
        </mxCell>
        <mxCell id="nJFfnlvHNIENDozwDLaP-11" value="Get an order details" style="rounded=0;whiteSpace=wrap;html=1;fillColor=none;strokeColor=none;align=left;" vertex="1" parent="nJFfnlvHNIENDozwDLaP-8">
          <mxGeometry x="60" y="24" width="120" height="30" as="geometry" />
        </mxCell>
        <mxCell id="nJFfnlvHNIENDozwDLaP-12" value="" style="group" vertex="1" connectable="0" parent="1">
          <mxGeometry x="440" y="760" width="200" height="80" as="geometry" />
        </mxCell>
        <mxCell id="nJFfnlvHNIENDozwDLaP-13" value="" style="fillColor=none;strokeColor=#5A6C86;dashed=1;verticalAlign=top;fontStyle=0;fontColor=#5A6C86;whiteSpace=wrap;html=1;" vertex="1" parent="nJFfnlvHNIENDozwDLaP-12">
          <mxGeometry width="200" height="80" as="geometry" />
        </mxCell>
        <mxCell id="nJFfnlvHNIENDozwDLaP-14" value="" style="sketch=0;outlineConnect=0;fontColor=#232F3E;gradientColor=none;fillColor=#E7157B;strokeColor=none;dashed=0;verticalLabelPosition=bottom;verticalAlign=top;align=center;html=1;fontSize=12;fontStyle=0;aspect=fixed;pointerEvents=1;shape=mxgraph.aws4.endpoint;" vertex="1" parent="nJFfnlvHNIENDozwDLaP-12">
          <mxGeometry x="12" y="20" width="38" height="38" as="geometry" />
        </mxCell>
        <mxCell id="nJFfnlvHNIENDozwDLaP-15" value="Get Platform statistics" style="rounded=0;whiteSpace=wrap;html=1;fillColor=none;strokeColor=none;align=left;" vertex="1" parent="nJFfnlvHNIENDozwDLaP-12">
          <mxGeometry x="60" y="24" width="120" height="30" as="geometry" />
        </mxCell>
        <mxCell id="nJFfnlvHNIENDozwDLaP-16" value="" style="group" vertex="1" connectable="0" parent="1">
          <mxGeometry x="440" y="260" width="200" height="80" as="geometry" />
        </mxCell>
        <mxCell id="nJFfnlvHNIENDozwDLaP-17" value="" style="fillColor=none;strokeColor=#5A6C86;dashed=1;verticalAlign=top;fontStyle=0;fontColor=#5A6C86;whiteSpace=wrap;html=1;" vertex="1" parent="nJFfnlvHNIENDozwDLaP-16">
          <mxGeometry width="200" height="80" as="geometry" />
        </mxCell>
        <mxCell id="nJFfnlvHNIENDozwDLaP-18" value="" style="sketch=0;outlineConnect=0;fontColor=#232F3E;gradientColor=none;fillColor=#E7157B;strokeColor=none;dashed=0;verticalLabelPosition=bottom;verticalAlign=top;align=center;html=1;fontSize=12;fontStyle=0;aspect=fixed;pointerEvents=1;shape=mxgraph.aws4.endpoint;" vertex="1" parent="nJFfnlvHNIENDozwDLaP-16">
          <mxGeometry x="12" y="20" width="38" height="38" as="geometry" />
        </mxCell>
        <mxCell id="nJFfnlvHNIENDozwDLaP-19" value="Place an order" style="rounded=0;whiteSpace=wrap;html=1;fillColor=none;strokeColor=none;align=left;" vertex="1" parent="nJFfnlvHNIENDozwDLaP-16">
          <mxGeometry x="60" y="24" width="120" height="30" as="geometry" />
        </mxCell>
        <mxCell id="nJFfnlvHNIENDozwDLaP-22" value="" style="edgeStyle=orthogonalEdgeStyle;html=1;endArrow=block;elbow=vertical;startArrow=none;endFill=1;strokeColor=#545B64;rounded=0;entryX=0;entryY=0.5;entryDx=0;entryDy=0;" edge="1" parent="1" source="nJFfnlvHNIENDozwDLaP-1" target="nJFfnlvHNIENDozwDLaP-5">
          <mxGeometry width="100" relative="1" as="geometry">
            <mxPoint x="290" y="340" as="sourcePoint" />
            <mxPoint x="390" y="340" as="targetPoint" />
          </mxGeometry>
        </mxCell>
        <mxCell id="nJFfnlvHNIENDozwDLaP-23" value="Only for the shop they are in&lt;div&gt;using the shop token&lt;/div&gt;" style="edgeLabel;html=1;align=center;verticalAlign=middle;resizable=0;points=[];" vertex="1" connectable="0" parent="nJFfnlvHNIENDozwDLaP-22">
          <mxGeometry x="-0.3187" y="-3" relative="1" as="geometry">
            <mxPoint x="69" y="-19" as="offset" />
          </mxGeometry>
        </mxCell>
        <mxCell id="nJFfnlvHNIENDozwDLaP-24" value="" style="edgeStyle=orthogonalEdgeStyle;html=1;endArrow=block;elbow=vertical;startArrow=none;endFill=1;strokeColor=#545B64;rounded=0;entryX=-0.015;entryY=0.425;entryDx=0;entryDy=0;entryPerimeter=0;" edge="1" parent="1" source="nJFfnlvHNIENDozwDLaP-1" target="nJFfnlvHNIENDozwDLaP-17">
          <mxGeometry width="100" relative="1" as="geometry">
            <mxPoint x="800" y="580" as="sourcePoint" />
            <mxPoint x="900" y="580" as="targetPoint" />
            <Array as="points">
              <mxPoint x="240" y="201" />
              <mxPoint x="240" y="294" />
            </Array>
          </mxGeometry>
        </mxCell>
        <mxCell id="nJFfnlvHNIENDozwDLaP-25" value="Only for the shop they are in&lt;div&gt;using the shop token&lt;/div&gt;" style="edgeLabel;html=1;align=center;verticalAlign=middle;resizable=0;points=[];" vertex="1" connectable="0" parent="nJFfnlvHNIENDozwDLaP-24">
          <mxGeometry x="0.3106" y="4" relative="1" as="geometry">
            <mxPoint x="31" y="-20" as="offset" />
          </mxGeometry>
        </mxCell>
        <mxCell id="nJFfnlvHNIENDozwDLaP-26" value="" style="group" vertex="1" connectable="0" parent="1">
          <mxGeometry x="440" y="460" width="200" height="80" as="geometry" />
        </mxCell>
        <mxCell id="nJFfnlvHNIENDozwDLaP-27" value="" style="fillColor=none;strokeColor=#5A6C86;dashed=1;verticalAlign=top;fontStyle=0;fontColor=#5A6C86;whiteSpace=wrap;html=1;" vertex="1" parent="nJFfnlvHNIENDozwDLaP-26">
          <mxGeometry width="200" height="80" as="geometry" />
        </mxCell>
        <mxCell id="nJFfnlvHNIENDozwDLaP-28" value="" style="sketch=0;outlineConnect=0;fontColor=#232F3E;gradientColor=none;fillColor=#E7157B;strokeColor=none;dashed=0;verticalLabelPosition=bottom;verticalAlign=top;align=center;html=1;fontSize=12;fontStyle=0;aspect=fixed;pointerEvents=1;shape=mxgraph.aws4.endpoint;" vertex="1" parent="nJFfnlvHNIENDozwDLaP-26">
          <mxGeometry x="12" y="20" width="38" height="38" as="geometry" />
        </mxCell>
        <mxCell id="nJFfnlvHNIENDozwDLaP-29" value="List all orders" style="rounded=0;whiteSpace=wrap;html=1;fillColor=none;strokeColor=none;align=left;" vertex="1" parent="nJFfnlvHNIENDozwDLaP-26">
          <mxGeometry x="60" y="24" width="120" height="30" as="geometry" />
        </mxCell>
        <mxCell id="nJFfnlvHNIENDozwDLaP-30" value="" style="edgeStyle=orthogonalEdgeStyle;html=1;endArrow=block;elbow=vertical;startArrow=none;endFill=1;strokeColor=#545B64;rounded=0;entryX=0;entryY=0.25;entryDx=0;entryDy=0;" edge="1" parent="1" source="nJFfnlvHNIENDozwDLaP-1" target="nJFfnlvHNIENDozwDLaP-9">
          <mxGeometry width="100" relative="1" as="geometry">
            <mxPoint x="194" y="211" as="sourcePoint" />
            <mxPoint x="447" y="324" as="targetPoint" />
            <Array as="points">
              <mxPoint x="240" y="201" />
              <mxPoint x="240" y="380" />
            </Array>
          </mxGeometry>
        </mxCell>
        <mxCell id="nJFfnlvHNIENDozwDLaP-31" value="Only for their order" style="edgeLabel;html=1;align=center;verticalAlign=middle;resizable=0;points=[];" vertex="1" connectable="0" parent="nJFfnlvHNIENDozwDLaP-30">
          <mxGeometry x="0.3106" y="4" relative="1" as="geometry">
            <mxPoint x="51" y="-6" as="offset" />
          </mxGeometry>
        </mxCell>
        <mxCell id="nJFfnlvHNIENDozwDLaP-32" value="" style="edgeStyle=orthogonalEdgeStyle;html=1;endArrow=block;elbow=vertical;startArrow=none;endFill=1;strokeColor=#545B64;rounded=0;entryX=0;entryY=0.75;entryDx=0;entryDy=0;" edge="1" parent="1" source="nJFfnlvHNIENDozwDLaP-2" target="nJFfnlvHNIENDozwDLaP-9">
          <mxGeometry width="100" relative="1" as="geometry">
            <mxPoint x="370" y="520" as="sourcePoint" />
            <mxPoint x="470" y="520" as="targetPoint" />
            <Array as="points">
              <mxPoint x="200" y="420" />
              <mxPoint x="200" y="420" />
            </Array>
          </mxGeometry>
        </mxCell>
        <mxCell id="nJFfnlvHNIENDozwDLaP-33" value="Only for orders placed&lt;div&gt;in their shop&lt;/div&gt;" style="edgeLabel;html=1;align=center;verticalAlign=middle;resizable=0;points=[];" vertex="1" connectable="0" parent="nJFfnlvHNIENDozwDLaP-32">
          <mxGeometry x="0.1861" y="-2" relative="1" as="geometry">
            <mxPoint x="-10" y="18" as="offset" />
          </mxGeometry>
        </mxCell>
        <mxCell id="nJFfnlvHNIENDozwDLaP-34" value="" style="group" vertex="1" connectable="0" parent="1">
          <mxGeometry x="440" y="560" width="200" height="80" as="geometry" />
        </mxCell>
        <mxCell id="nJFfnlvHNIENDozwDLaP-35" value="" style="fillColor=none;strokeColor=#5A6C86;dashed=1;verticalAlign=top;fontStyle=0;fontColor=#5A6C86;whiteSpace=wrap;html=1;" vertex="1" parent="nJFfnlvHNIENDozwDLaP-34">
          <mxGeometry width="200" height="80" as="geometry" />
        </mxCell>
        <mxCell id="nJFfnlvHNIENDozwDLaP-36" value="" style="sketch=0;outlineConnect=0;fontColor=#232F3E;gradientColor=none;fillColor=#E7157B;strokeColor=none;dashed=0;verticalLabelPosition=bottom;verticalAlign=top;align=center;html=1;fontSize=12;fontStyle=0;aspect=fixed;pointerEvents=1;shape=mxgraph.aws4.endpoint;" vertex="1" parent="nJFfnlvHNIENDozwDLaP-34">
          <mxGeometry x="12" y="20" width="38" height="38" as="geometry" />
        </mxCell>
        <mxCell id="nJFfnlvHNIENDozwDLaP-37" value="Get a shop sales" style="rounded=0;whiteSpace=wrap;html=1;fillColor=none;strokeColor=none;align=left;" vertex="1" parent="nJFfnlvHNIENDozwDLaP-34">
          <mxGeometry x="60" y="24" width="120" height="30" as="geometry" />
        </mxCell>
        <mxCell id="nJFfnlvHNIENDozwDLaP-38" value="" style="edgeStyle=orthogonalEdgeStyle;html=1;endArrow=block;elbow=vertical;startArrow=none;endFill=1;strokeColor=#545B64;rounded=0;entryX=0;entryY=0.5;entryDx=0;entryDy=0;" edge="1" parent="1" source="nJFfnlvHNIENDozwDLaP-2" target="nJFfnlvHNIENDozwDLaP-35">
          <mxGeometry width="100" relative="1" as="geometry">
            <mxPoint x="204" y="430" as="sourcePoint" />
            <mxPoint x="450" y="430" as="targetPoint" />
            <Array as="points">
              <mxPoint x="240" y="420" />
              <mxPoint x="240" y="600" />
            </Array>
          </mxGeometry>
        </mxCell>
        <mxCell id="nJFfnlvHNIENDozwDLaP-39" value="Only for their shop" style="edgeLabel;html=1;align=center;verticalAlign=middle;resizable=0;points=[];" vertex="1" connectable="0" parent="nJFfnlvHNIENDozwDLaP-38">
          <mxGeometry x="0.1861" y="-2" relative="1" as="geometry">
            <mxPoint x="72" y="-18" as="offset" />
          </mxGeometry>
        </mxCell>
        <mxCell id="nJFfnlvHNIENDozwDLaP-40" value="" style="edgeStyle=orthogonalEdgeStyle;html=1;endArrow=block;elbow=vertical;startArrow=none;endFill=1;strokeColor=#545B64;rounded=0;entryX=0;entryY=0.5;entryDx=0;entryDy=0;" edge="1" parent="1" source="nJFfnlvHNIENDozwDLaP-2" target="nJFfnlvHNIENDozwDLaP-27">
          <mxGeometry width="100" relative="1" as="geometry">
            <mxPoint x="204" y="430" as="sourcePoint" />
            <mxPoint x="450" y="650" as="targetPoint" />
            <Array as="points">
              <mxPoint x="240" y="420" />
              <mxPoint x="240" y="500" />
            </Array>
          </mxGeometry>
        </mxCell>
        <mxCell id="nJFfnlvHNIENDozwDLaP-41" value="Only for their shop" style="edgeLabel;html=1;align=center;verticalAlign=middle;resizable=0;points=[];" vertex="1" connectable="0" parent="nJFfnlvHNIENDozwDLaP-40">
          <mxGeometry x="0.1861" y="-2" relative="1" as="geometry">
            <mxPoint x="31" y="-18" as="offset" />
          </mxGeometry>
        </mxCell>
        <mxCell id="nJFfnlvHNIENDozwDLaP-42" value="" style="edgeStyle=orthogonalEdgeStyle;html=1;endArrow=block;elbow=vertical;startArrow=none;endFill=1;strokeColor=#545B64;rounded=0;entryX=0;entryY=0.5;entryDx=0;entryDy=0;" edge="1" parent="1" source="nJFfnlvHNIENDozwDLaP-3" target="nJFfnlvHNIENDozwDLaP-13">
          <mxGeometry width="100" relative="1" as="geometry">
            <mxPoint x="150" y="910" as="sourcePoint" />
            <mxPoint x="250" y="910" as="targetPoint" />
          </mxGeometry>
        </mxCell>
        <mxCell id="nJFfnlvHNIENDozwDLaP-43" value="" style="group" vertex="1" connectable="0" parent="1">
          <mxGeometry x="440" y="660" width="200" height="80" as="geometry" />
        </mxCell>
        <mxCell id="nJFfnlvHNIENDozwDLaP-44" value="" style="fillColor=none;strokeColor=#5A6C86;dashed=1;verticalAlign=top;fontStyle=0;fontColor=#5A6C86;whiteSpace=wrap;html=1;" vertex="1" parent="nJFfnlvHNIENDozwDLaP-43">
          <mxGeometry width="200" height="80" as="geometry" />
        </mxCell>
        <mxCell id="nJFfnlvHNIENDozwDLaP-45" value="" style="sketch=0;outlineConnect=0;fontColor=#232F3E;gradientColor=none;fillColor=#E7157B;strokeColor=none;dashed=0;verticalLabelPosition=bottom;verticalAlign=top;align=center;html=1;fontSize=12;fontStyle=0;aspect=fixed;pointerEvents=1;shape=mxgraph.aws4.endpoint;" vertex="1" parent="nJFfnlvHNIENDozwDLaP-43">
          <mxGeometry x="12" y="20" width="38" height="38" as="geometry" />
        </mxCell>
        <mxCell id="nJFfnlvHNIENDozwDLaP-46" value="Get a shop sales" style="rounded=0;whiteSpace=wrap;html=1;fillColor=none;strokeColor=none;align=left;" vertex="1" parent="nJFfnlvHNIENDozwDLaP-43">
          <mxGeometry x="60" y="24" width="120" height="30" as="geometry" />
        </mxCell>
        <mxCell id="nJFfnlvHNIENDozwDLaP-47" value="" style="edgeStyle=orthogonalEdgeStyle;html=1;endArrow=block;elbow=vertical;startArrow=none;endFill=1;strokeColor=#545B64;rounded=0;entryX=0;entryY=0.5;entryDx=0;entryDy=0;" edge="1" parent="1" source="nJFfnlvHNIENDozwDLaP-2" target="nJFfnlvHNIENDozwDLaP-44">
          <mxGeometry width="100" relative="1" as="geometry">
            <mxPoint x="204" y="430" as="sourcePoint" />
            <mxPoint x="450" y="650" as="targetPoint" />
            <Array as="points">
              <mxPoint x="240" y="420" />
              <mxPoint x="240" y="700" />
            </Array>
          </mxGeometry>
        </mxCell>
        <mxCell id="nJFfnlvHNIENDozwDLaP-48" value="Only for their shop" style="edgeLabel;html=1;align=center;verticalAlign=middle;resizable=0;points=[];" vertex="1" connectable="0" parent="nJFfnlvHNIENDozwDLaP-47">
          <mxGeometry x="0.1861" y="-2" relative="1" as="geometry">
            <mxPoint x="92" y="-2" as="offset" />
          </mxGeometry>
        </mxCell>
      </root>
    </mxGraphModel>
  </diagram>
</mxfile>
